<?xml version="1.0" encoding="utf-8"?>
<!-- Generator: Adobe Illustrator 16.0.0, SVG Export Plug-In . SVG Version: 6.00 Build 0)  -->
<!DOCTYPE svg PUBLIC "-//W3C//DTD SVG 1.1//EN" "http://www.w3.org/Graphics/SVG/1.1/DTD/svg11.dtd">
<svg version="1.1" id="圖層_1" xmlns="http://www.w3.org/2000/svg" xmlns:xlink="http://www.w3.org/1999/xlink" x="0px" y="0px"
	 width="841.89px" height="595.28px" viewBox="0 0 841.89 595.28" enable-background="new 0 0 841.89 595.28" xml:space="preserve">
<g>
	<path fill="#FFFFFF" d="M460.24,95.384c0.785-0.281,5.336,6.503,4.158,8.128S457.652,96.312,460.24,95.384z"/>
	<path opacity="0.6" fill="#FFFFFF" d="M514.607,96.278c0.83-0.075,3.537,7.633,1.99,8.91
		C515.051,106.466,511.869,96.529,514.607,96.278z"/>
	<g>
		<path fill="#FFFFFF" d="M254.389,244.615c0,0-3.038,0.157-7.596,0.27c-2.278,0.037-4.938,0.136-7.785,0.143
			c-2.849,0.018-5.887,0.037-8.925,0.056c-3.039-0.021-6.077-0.042-8.926-0.062c-2.848-0.026-5.507-0.105-7.785-0.146
			c-2.278-0.046-4.178-0.133-5.507-0.171c-1.329-0.057-2.089-0.09-2.089-0.09c-0.291-0.013-0.517-0.259-0.505-0.55
			c0.013-0.275,0.235-0.492,0.505-0.504c0,0,0.76-0.033,2.089-0.09c1.329-0.038,3.229-0.125,5.507-0.171
			c2.278-0.04,4.938-0.119,7.785-0.146c2.849-0.02,5.887-0.041,8.926-0.062c3.038,0.019,6.076,0.038,8.925,0.056
			c2.848,0.007,5.507,0.105,7.785,0.143c4.558,0.113,7.596,0.271,7.596,0.271c0.291,0.015,0.515,0.263,0.5,0.554
			C254.875,244.387,254.655,244.6,254.389,244.615z"/>
		<path fill="#FFFFFF" d="M241.641,264.86c0,0-1.637-2.484-3.987-6.272c-1.158-1.903-2.557-4.096-3.971-6.496
			c-1.423-2.394-2.941-4.947-4.459-7.501c-1.483-2.574-2.968-5.148-4.358-7.561c-1.385-2.417-2.631-4.699-3.723-6.642
			c-1.086-1.945-1.949-3.592-2.573-4.732c-0.607-1.15-0.955-1.808-0.955-1.808c-0.136-0.258-0.037-0.577,0.221-0.713
			c0.243-0.128,0.542-0.046,0.689,0.18c0,0,0.403,0.625,1.109,1.717c0.69,1.102,1.704,2.66,2.87,4.559
			c1.161,1.902,2.543,4.105,3.974,6.495c1.425,2.393,2.944,4.945,4.464,7.498c1.485,2.573,2.971,5.146,4.363,7.558
			c1.402,2.407,2.631,4.699,3.725,6.641c2.155,3.902,3.521,6.544,3.521,6.544c0.134,0.259,0.032,0.578-0.227,0.711
			C242.083,265.163,241.789,265.081,241.641,264.86z"/>
		<path fill="#FFFFFF" d="M217.615,264.325c0,0,1.366-2.643,3.521-6.544c1.094-1.941,2.322-4.234,3.725-6.641
			c1.393-2.412,2.878-4.985,4.363-7.558c1.52-2.553,3.039-5.105,4.464-7.498c1.431-2.39,2.813-4.593,3.974-6.495
			c1.166-1.899,2.18-3.457,2.87-4.559c0.706-1.092,1.109-1.717,1.109-1.717c0.158-0.245,0.485-0.315,0.729-0.157
			c0.231,0.149,0.306,0.451,0.181,0.69c0,0-0.348,0.657-0.955,1.808c-0.624,1.141-1.487,2.787-2.573,4.732
			c-1.092,1.943-2.338,4.226-3.723,6.642c-1.391,2.413-2.875,4.987-4.358,7.561c-1.518,2.554-3.036,5.107-4.459,7.501
			c-1.413,2.4-2.813,4.593-3.972,6.496c-2.35,3.788-3.986,6.272-3.986,6.272c-0.16,0.243-0.488,0.311-0.731,0.15
			C217.566,264.858,217.494,264.562,217.615,264.325z"/>
		<path fill="#FFFFFF" d="M234.275,237.376l7.933-0.485c0.382-0.023,0.71,0.267,0.733,0.649c0.012,0.193-0.058,0.373-0.178,0.506
			l-0.021,0.023c-1.958,2.154-3.938,4.286-5.917,6.418l0.078-1.035l5.534,7.774c0.296,0.415,0.199,0.991-0.216,1.287
			c-0.191,0.136-0.416,0.188-0.632,0.166l-0.015-0.002l-7.546-0.806l0.915-0.444l-3.61,5.847c-0.284,0.46-0.888,0.603-1.347,0.318
			c-0.12-0.074-0.218-0.169-0.293-0.277l-0.005-0.008l-4.199-6.161l0.987,0.42l-6.85,1.143l-0.006,0.001
			c-0.526,0.087-1.023-0.268-1.111-0.793c-0.039-0.234,0.01-0.464,0.122-0.653l4.356-7.318l0.021,0.986l-4.276-6.7l-0.009-0.014
			c-0.259-0.405-0.14-0.942,0.265-1.201c0.181-0.116,0.39-0.156,0.587-0.128l6.556,0.903l-0.82,0.44l3.737-7.281l0.011-0.021
			c0.171-0.333,0.579-0.464,0.912-0.293c0.112,0.058,0.203,0.145,0.266,0.245L234.275,237.376z M233.551,238.208l-4.462-6.58
			l1.188-0.069l-3.526,7.385c-0.148,0.311-0.476,0.48-0.8,0.443l-0.021-0.002l-6.573-0.763l0.842-1.343l4.383,6.632
			c0.201,0.304,0.199,0.682,0.027,0.977l-0.006,0.01l-4.304,7.349l-0.995-1.445l6.84-1.191c0.395-0.068,0.776,0.11,0.987,0.42
			l4.182,6.173l-1.645,0.033l3.654-5.82l0.004-0.006c0.201-0.319,0.562-0.478,0.913-0.438l7.539,0.862l-0.863,1.451l-5.361-7.894
			l-0.01-0.015c-0.22-0.324-0.174-0.75,0.088-1.021c2.025-2.089,4.05-4.179,6.097-6.248l0.535,1.178l-8.249,0.162
			C233.825,238.452,233.652,238.354,233.551,238.208z"/>
		<path fill="#FFFFFF" d="M257.86,240.875c-0.606,0.743-1.273,1.41-1.964,2.046c-0.69,0.638-1.408,1.241-2.145,1.82l-0.043-1.591
			c0.728,0.529,1.446,1.07,2.136,1.653c0.692,0.579,1.368,1.18,1.993,1.854c0.202,0.218,0.188,0.559-0.029,0.761
			c-0.162,0.15-0.392,0.182-0.582,0.099c-0.842-0.368-1.633-0.808-2.407-1.271c-0.777-0.459-1.525-0.959-2.264-1.472
			c-0.448-0.311-0.56-0.927-0.249-1.375c0.055-0.078,0.118-0.146,0.188-0.204l0.017-0.013c0.73-0.587,1.479-1.151,2.256-1.679
			c0.776-0.53,1.576-1.03,2.437-1.454c0.268-0.131,0.591-0.021,0.723,0.246C258.022,240.491,257.989,240.716,257.86,240.875z"/>
		<path fill="#FFFFFF" d="M253.383,240.851c-1.011,1.447-2.222,2.677-3.487,3.847l-0.017-1.484c1.291,1.16,2.538,2.37,3.6,3.791
			c0.179,0.238,0.13,0.576-0.108,0.754c-0.177,0.132-0.407,0.139-0.587,0.038c-1.546-0.871-2.906-1.952-4.223-3.084
			c-0.413-0.355-0.461-0.98-0.104-1.394c0.024-0.029,0.051-0.056,0.078-0.081l0.01-0.01c1.271-1.164,2.6-2.267,4.126-3.153
			c0.258-0.149,0.588-0.062,0.737,0.196C253.517,240.458,253.5,240.684,253.383,240.851z"/>
		<path fill="#FFFFFF" d="M201.921,246.987c0.606-0.743,1.273-1.41,1.964-2.046c0.69-0.638,1.408-1.241,2.145-1.82l0.043,1.591
			c-0.728-0.529-1.446-1.07-2.136-1.653c-0.692-0.579-1.368-1.18-1.993-1.854c-0.202-0.218-0.188-0.559,0.029-0.761
			c0.162-0.15,0.392-0.182,0.582-0.099c0.842,0.368,1.633,0.808,2.407,1.271c0.777,0.459,1.525,0.959,2.264,1.472
			c0.448,0.311,0.56,0.927,0.249,1.375c-0.055,0.078-0.118,0.146-0.188,0.204l-0.017,0.013c-0.73,0.587-1.479,1.151-2.257,1.679
			c-0.775,0.53-1.575,1.03-2.436,1.454c-0.268,0.131-0.591,0.021-0.723-0.246C201.759,247.371,201.792,247.146,201.921,246.987z"/>
		<path fill="#FFFFFF" d="M206.398,247.012c1.011-1.447,2.221-2.677,3.487-3.847l0.017,1.484c-1.291-1.16-2.538-2.37-3.6-3.791
			c-0.179-0.238-0.13-0.576,0.108-0.754c0.177-0.132,0.407-0.139,0.587-0.038c1.546,0.871,2.906,1.952,4.223,3.084
			c0.414,0.355,0.461,0.98,0.104,1.394c-0.024,0.029-0.051,0.056-0.077,0.081l-0.011,0.01c-1.271,1.164-2.6,2.267-4.126,3.153
			c-0.258,0.149-0.588,0.062-0.737-0.196C206.264,247.405,206.282,247.179,206.398,247.012z"/>
		<path fill="#FFFFFF" d="M220.06,266.814c-0.322-0.922-0.533-1.857-0.713-2.796c-0.171-0.939-0.311-1.883-0.402-2.832l1.447,0.765
			c-0.745,0.381-1.5,0.745-2.275,1.068c-0.775,0.326-1.561,0.631-2.385,0.862c-0.287,0.081-0.585-0.087-0.665-0.374
			c-0.059-0.21,0.016-0.427,0.173-0.559c0.657-0.549,1.354-1.024,2.06-1.479c0.706-0.457,1.433-0.875,2.168-1.274
			c0.479-0.259,1.075-0.082,1.334,0.396c0.059,0.107,0.095,0.221,0.11,0.335l0.004,0.033c0.126,0.945,0.204,1.895,0.251,2.849
			c0.038,0.955,0.045,1.914-0.06,2.885c-0.031,0.296-0.298,0.511-0.595,0.479C220.298,267.151,220.126,267.005,220.06,266.814z"/>
		<path fill="#FFFFFF" d="M244.986,263.799c-0.83-0.064-1.635-0.212-2.431-0.384c-0.798-0.168-1.581-0.383-2.359-0.615l1.289-0.97
			c0.03,0.966,0.022,1.932-0.025,2.899s-0.135,1.936-0.32,2.906c-0.057,0.292-0.339,0.484-0.631,0.428
			c-0.216-0.042-0.376-0.206-0.424-0.406c-0.226-0.962-0.354-1.926-0.441-2.89s-0.136-1.93-0.146-2.896v-0.021
			c-0.007-0.545,0.43-0.991,0.975-0.997c0.108-0.001,0.217,0.017,0.314,0.048c0.772,0.25,1.54,0.518,2.292,0.831
			c0.754,0.31,1.5,0.644,2.221,1.061c0.259,0.15,0.347,0.48,0.197,0.739C245.388,263.716,245.186,263.814,244.986,263.799z"/>
		<path fill="#FFFFFF" d="M240.568,220.74c0.322,0.922,0.533,1.857,0.713,2.796c0.171,0.939,0.311,1.883,0.402,2.832l-1.447-0.765
			c0.745-0.381,1.5-0.745,2.275-1.068c0.775-0.326,1.561-0.631,2.385-0.862c0.287-0.081,0.585,0.087,0.665,0.374
			c0.059,0.21-0.016,0.427-0.173,0.559c-0.657,0.549-1.354,1.024-2.06,1.479c-0.706,0.457-1.433,0.875-2.168,1.274
			c-0.479,0.259-1.075,0.082-1.334-0.396c-0.059-0.107-0.095-0.221-0.11-0.335l-0.004-0.033c-0.126-0.945-0.204-1.895-0.251-2.849
			c-0.038-0.955-0.045-1.914,0.06-2.885c0.031-0.296,0.298-0.511,0.595-0.479C240.33,220.404,240.501,220.549,240.568,220.74z"/>
		<path fill="#FFFFFF" d="M215.372,224.436c0.83,0.064,1.635,0.212,2.431,0.384c0.798,0.168,1.581,0.383,2.359,0.615l-1.289,0.97
			c-0.029-0.966-0.022-1.932,0.025-2.899s0.135-1.936,0.32-2.906c0.057-0.292,0.339-0.484,0.631-0.428
			c0.216,0.042,0.376,0.206,0.424,0.406c0.226,0.962,0.354,1.926,0.441,2.89s0.136,1.93,0.146,2.896v0.021
			c0.007,0.545-0.43,0.991-0.975,0.997c-0.108,0.001-0.217-0.017-0.314-0.048c-0.772-0.25-1.54-0.518-2.292-0.831
			c-0.754-0.31-1.501-0.644-2.221-1.061c-0.259-0.15-0.347-0.48-0.197-0.739C214.969,224.518,215.171,224.42,215.372,224.436z"/>
		<path fill="#FFFFFF" d="M223.019,226.708c0,0-0.101,0.333-0.344,0.741c-0.237,0.414-0.615,0.904-1.05,1.34
			c-0.434,0.437-0.927,0.813-1.334,1.059c-0.403,0.25-0.729,0.36-0.729,0.36c-0.309,0.104-0.644-0.062-0.748-0.371
			c-0.042-0.125-0.04-0.254-0.002-0.37c0,0,0.105-0.327,0.351-0.733c0.241-0.411,0.612-0.909,1.043-1.347
			c0.43-0.439,0.916-0.824,1.327-1.066c0.404-0.249,0.736-0.353,0.736-0.353c0.314-0.099,0.649,0.076,0.748,0.39
			C223.054,226.476,223.052,226.597,223.019,226.708z"/>
		<path fill="#FFFFFF" d="M241.806,229.752c0,0-0.369-0.083-0.842-0.311c-0.479-0.221-1.063-0.583-1.598-1.007
			c-0.536-0.423-1.02-0.913-1.35-1.321c-0.334-0.404-0.507-0.736-0.508-0.736c-0.146-0.284-0.036-0.633,0.247-0.78
			c0.13-0.067,0.273-0.081,0.405-0.049c-0.001,0,0.363,0.089,0.835,0.318c0.475,0.225,1.065,0.578,1.604,0.999
			c0.538,0.419,1.028,0.901,1.356,1.313c0.332,0.405,0.5,0.744,0.5,0.744c0.144,0.289,0.025,0.639-0.264,0.783
			C242.069,229.767,241.932,229.78,241.806,229.752z"/>
		<path fill="#FFFFFF" d="M242.453,258.881c0,0-0.177,0.34-0.52,0.746c-0.339,0.413-0.843,0.895-1.395,1.314
			c-0.551,0.421-1.153,0.774-1.638,0.998c-0.479,0.228-0.85,0.316-0.849,0.316c-0.311,0.074-0.622-0.118-0.696-0.428
			c-0.034-0.144-0.011-0.289,0.054-0.409c0,0,0.182-0.333,0.526-0.738c0.341-0.409,0.839-0.899,1.388-1.322
			c0.549-0.424,1.145-0.786,1.631-1.006c0.482-0.227,0.856-0.308,0.856-0.308c0.313-0.069,0.624,0.13,0.692,0.444
			C242.534,258.626,242.512,258.764,242.453,258.881z"/>
		<path fill="#FFFFFF" d="M222.673,260.945c0,0-0.376-0.048-0.869-0.229c-0.498-0.175-1.114-0.479-1.688-0.852
			c-0.575-0.37-1.104-0.812-1.474-1.187c-0.372-0.371-0.576-0.686-0.576-0.686c-0.174-0.268-0.098-0.626,0.17-0.8
			c0.122-0.08,0.265-0.107,0.398-0.087c0,0,0.372,0.054,0.863,0.237c0.495,0.179,1.118,0.475,1.694,0.843
			c0.578,0.366,1.112,0.8,1.479,1.179c0.37,0.373,0.57,0.694,0.57,0.694c0.171,0.273,0.087,0.634-0.187,0.804
			C222.937,260.936,222.801,260.961,222.673,260.945z"/>
	</g>
	<path fill="#FFFFFF" d="M91.81,151.264c0.185-0.147,0.279-0.393,0.221-0.638c-0.079-0.34-0.419-0.55-0.759-0.47
		c-1.111,0.261-2.167,0.639-3.206,1.05c-0.903,0.367-1.79,0.766-2.663,1.196c0.065-0.317,0.115-0.622,0.144-0.888
		c0.07-0.608,0.028-1.045,0.028-1.044c-0.017-0.158-0.086-0.312-0.21-0.429c-0.273-0.255-0.701-0.242-0.957,0.03
		c0,0-0.301,0.32-0.617,0.845c-0.186,0.302-0.381,0.676-0.565,1.081c-0.725-0.166-1.481-0.337-2.304-0.515
		c-2.548-0.545-5.514-1.218-8.704-1.873c-0.077-0.016-0.158-0.032-0.237-0.048l4.642-5.771c0.086-0.108,0.147-0.242,0.168-0.388
		c0.06-0.434-0.243-0.833-0.676-0.893l-0.027-0.003l-6.61-0.913c2.063-2.48,3.942-4.836,5.579-6.837
		c0.32-0.393,0.617-0.763,0.912-1.132c0.535,0.226,1.074,0.408,1.52,0.492c0.543,0.111,0.949,0.093,0.949,0.093
		c0.137-0.006,0.271-0.051,0.388-0.138c0.308-0.231,0.371-0.668,0.141-0.977c0,0-0.245-0.325-0.675-0.676
		c-0.24-0.203-0.544-0.413-0.876-0.614c0.014-0.017,0.023-0.031,0.037-0.047c0.167,0.017,0.338,0.007,0.506-0.054l0.024-0.009
		c1.062-0.385,2.109-0.812,3.139-1.282c1.03-0.471,2.044-0.984,3.019-1.605c0.203-0.13,0.322-0.371,0.284-0.624
		c-0.052-0.344-0.372-0.582-0.716-0.531c-1.144,0.17-2.245,0.449-3.331,0.771c-0.143,0.042-0.28,0.1-0.422,0.144
		c0.308-0.396,0.488-0.629,0.488-0.629c0.191-0.25,0.166-0.612-0.068-0.831c-0.25-0.231-0.641-0.217-0.873,0.033
		c0,0-0.34,0.368-0.953,1.029c-0.016-0.148-0.026-0.297-0.046-0.445c-0.119-0.946-0.268-1.891-0.518-2.831
		c-0.061-0.228-0.245-0.412-0.492-0.458c-0.344-0.065-0.673,0.16-0.738,0.503c-0.183,0.956-0.263,1.909-0.313,2.86
		c-0.051,0.904-0.05,1.805-0.03,2.707c-0.174,0.189-0.344,0.376-0.528,0.58c-0.417-0.151-0.825-0.278-1.172-0.346
		c-0.544-0.113-0.945-0.104-0.945-0.104c-0.144,0.003-0.287,0.052-0.408,0.146c-0.3,0.234-0.354,0.668-0.12,0.969
		c0,0,0.248,0.317,0.68,0.666c0.13,0.108,0.303,0.221,0.463,0.333c-0.241,0.27-0.477,0.53-0.729,0.815
		c-1.723,1.956-3.759,4.214-5.89,6.677c-0.183,0.212-0.377,0.438-0.562,0.653l-1.328-6.544c-0.047-0.229-0.171-0.443-0.368-0.598
		c-0.442-0.347-1.081-0.27-1.428,0.172l-0.012,0.015l-4.211,5.366c-0.094-0.261-0.189-0.528-0.282-0.786
		c-1.132-3.133-2.247-6.036-3.173-8.535c-0.29-0.777-0.565-1.494-0.831-2.182c0.06-0.08,0.125-0.155,0.163-0.251
		c0.738-1.89,1.406-3.81,1.77-5.852c0.041-0.238-0.056-0.49-0.27-0.633c-0.289-0.194-0.681-0.117-0.875,0.172
		c-0.766,1.14-1.392,2.335-1.958,3.556c-0.11-0.283-0.224-0.572-0.318-0.82c-0.05-0.124-0.095-0.237-0.141-0.352
		c0.141-0.138,0.259-0.299,0.315-0.502c0.279-1.014,0.542-2.033,0.749-3.068c0.21-1.034,0.391-2.077,0.47-3.148
		c0.018-0.242-0.105-0.483-0.334-0.604c-0.308-0.163-0.688-0.045-0.851,0.262c-0.502,0.95-0.904,1.929-1.275,2.917
		c-0.199,0.521-0.381,1.047-0.553,1.575c-0.513-0.304-1.016-0.624-1.543-0.904c-0.971-0.516-1.964-0.995-3.019-1.376
		c-0.225-0.081-0.486-0.03-0.664,0.151c-0.244,0.249-0.241,0.648,0.007,0.893c0.8,0.786,1.661,1.475,2.546,2.125
		c0.884,0.653,1.797,1.262,2.728,1.84c0.063,0.207,0.129,0.425,0.202,0.667c0.047,0.147,0.103,0.329,0.154,0.489
		c-1.054-0.475-2.133-0.898-3.269-1.216c-0.229-0.064-0.485,0.004-0.649,0.197c-0.227,0.265-0.195,0.664,0.069,0.89
		c1.488,1.272,3.122,2.268,4.802,3.18c0.255,0.813,0.526,1.669,0.834,2.603c0.837,2.53,1.778,5.494,2.851,8.648
		c0.147,0.43,0.3,0.874,0.45,1.312l-8.314-1.682c-0.252-0.051-0.523-0.017-0.768,0.117c-0.547,0.3-0.745,0.987-0.446,1.533
		l0.005,0.007l2.734,4.978c-2.811-0.522-5.46-0.945-7.747-1.353c-0.126-0.021-0.245-0.041-0.368-0.062
		c0.141-0.688,0.213-1.375,0.217-1.916c0.013-0.614-0.071-1.045-0.071-1.045c-0.03-0.155-0.115-0.302-0.25-0.406
		c-0.296-0.229-0.721-0.174-0.949,0.122c0,0-0.269,0.347-0.533,0.901c-0.257,0.523-0.523,1.229-0.708,1.964
		c-0.127-0.021-0.246-0.04-0.369-0.059c-0.063-0.15-0.151-0.29-0.279-0.406c-0.726-0.658-1.468-1.298-2.245-1.899
		c-0.774-0.604-1.568-1.188-2.429-1.7c-0.206-0.123-0.475-0.122-0.685,0.025c-0.284,0.2-0.354,0.593-0.154,0.878
		c0.573,0.82,1.214,1.569,1.873,2.297c0.071,0.079,0.149,0.148,0.222,0.226c-1.187-0.179-1.855-0.274-1.855-0.274
		c-0.308-0.042-0.607,0.153-0.685,0.461c-0.083,0.331,0.118,0.666,0.449,0.75c0,0,0.575,0.144,1.597,0.389
		c-0.118,0.066-0.238,0.127-0.354,0.193c-0.965,0.563-1.915,1.157-2.809,1.869c-0.185,0.147-0.279,0.393-0.221,0.639
		c0.079,0.339,0.419,0.55,0.759,0.47c1.111-0.261,2.167-0.639,3.206-1.05c0.98-0.398,1.944-0.831,2.889-1.304
		c0.26,0.06,0.527,0.121,0.804,0.185c-0.02,0.221-0.031,0.434-0.031,0.625c-0.011,0.615,0.083,1.048,0.083,1.048
		c0.032,0.148,0.113,0.287,0.239,0.39c0.294,0.235,0.725,0.189,0.96-0.105c0,0,0.277-0.345,0.544-0.898
		c0.09-0.177,0.178-0.381,0.262-0.596c0.179,0.04,0.354,0.079,0.536,0.12c2.45,0.521,5.287,1.182,8.341,1.794l-4.152,5.632
		l-0.007,0.009c-0.091,0.125-0.158,0.27-0.193,0.43c-0.136,0.618,0.255,1.228,0.872,1.363l6.018,1.32
		c-1.853,2.221-3.535,4.348-5.022,6.162c-0.437,0.541-0.848,1.054-1.239,1.545c-0.341-0.172-0.67-0.316-0.961-0.425
		c-0.58-0.224-1.019-0.294-1.018-0.294c-0.159-0.026-0.328,0.005-0.473,0.098c-0.314,0.202-0.404,0.62-0.203,0.933
		c0,0,0.24,0.373,0.678,0.815c0.177,0.182,0.392,0.379,0.622,0.578c-0.098,0.009-0.195,0.009-0.292,0.044l-0.023,0.009
		c-1.063,0.386-2.109,0.812-3.14,1.282s-2.045,0.984-3.018,1.606c-0.204,0.129-0.322,0.371-0.285,0.624
		c0.052,0.344,0.373,0.582,0.717,0.53c1.143-0.17,2.244-0.449,3.33-0.771c0.053-0.015,0.105-0.034,0.158-0.05
		c-0.138,0.178-0.232,0.302-0.232,0.302c-0.187,0.248-0.163,0.604,0.067,0.823c0.249,0.234,0.64,0.223,0.874-0.026
		c0,0,0.336-0.356,0.939-1.007c0.023,0.22,0.039,0.439,0.067,0.659c0.119,0.946,0.268,1.891,0.518,2.832
		c0.061,0.227,0.245,0.412,0.492,0.458c0.344,0.065,0.674-0.16,0.738-0.503c0.184-0.956,0.263-1.909,0.313-2.861
		c0.054-0.952,0.053-1.902,0.029-2.851c-0.001-0.023-0.011-0.046-0.014-0.069c0.023-0.025,0.045-0.048,0.067-0.074
		c0.619,0.391,1.265,0.723,1.794,0.916c0.581,0.222,1.025,0.284,1.025,0.284c0.151,0.022,0.312-0.007,0.452-0.094
		c0.32-0.197,0.419-0.617,0.223-0.937c-0.001,0-0.235-0.381-0.671-0.825c-0.327-0.341-0.766-0.721-1.254-1.076
		c0.365-0.406,0.742-0.826,1.139-1.27c1.495-1.705,3.251-3.636,5.073-5.739l1.544,6.573l0.003,0.018
		c0.06,0.247,0.205,0.475,0.429,0.633c0.486,0.344,1.159,0.228,1.504-0.259l5.128-7.261c0.128,0.358,0.258,0.723,0.385,1.077
		c1.109,3.141,2.246,6.036,3.169,8.536c0.278,0.737,0.545,1.43,0.797,2.087c-0.706,1.825-1.342,3.679-1.692,5.649
		c-0.041,0.238,0.057,0.489,0.27,0.633c0.289,0.194,0.681,0.117,0.875-0.172c0.665-0.989,1.222-2.021,1.73-3.073
		c0.153,0.395,0.297,0.756,0.427,1.083c-0.015,0.038-0.044,0.067-0.055,0.108c-0.281,1.014-0.544,2.033-0.749,3.068
		c-0.212,1.034-0.392,2.077-0.472,3.148c-0.018,0.242,0.105,0.483,0.333,0.604c0.309,0.163,0.688,0.045,0.852-0.262
		c0.503-0.95,0.905-1.929,1.276-2.917c0.172-0.454,0.331-0.912,0.483-1.371c0.072-0.035,0.133-0.08,0.185-0.138
		c0.476,0.28,0.939,0.578,1.428,0.837c0.97,0.516,1.964,0.994,3.018,1.376c0.225,0.08,0.486,0.03,0.664-0.151
		c0.245-0.249,0.241-0.648-0.007-0.893c-0.8-0.786-1.661-1.475-2.546-2.125c-0.884-0.653-1.795-1.261-2.726-1.84l-0.021-0.013
		c-0.09-0.056-0.189-0.099-0.297-0.129c-0.028-0.008-0.057,0-0.086-0.006c-0.111-0.364-0.234-0.765-0.37-1.201
		c1.183,0.555,2.397,1.05,3.685,1.41c0.229,0.063,0.485-0.005,0.65-0.198c0.226-0.265,0.194-0.663-0.07-0.89
		c-1.568-1.341-3.299-2.379-5.075-3.332l-0.016-0.008c-0.037-0.021-0.077-0.039-0.118-0.055c-0.007-0.003-0.015-0.001-0.021-0.004
		c-0.187-0.585-0.383-1.2-0.591-1.842c-0.841-2.529-1.76-5.5-2.854-8.646c-0.118-0.342-0.239-0.695-0.357-1.042
		c2.465,1.074,4.93,2.15,7.406,3.198l0.034,0.014c0.193,0.082,0.418,0.088,0.627,0c0.412-0.174,0.605-0.648,0.432-1.06l-3.216-7.643
		c0.13,0.024,0.264,0.049,0.393,0.074c3.202,0.593,6.203,1.085,8.77,1.538c0.732,0.127,1.42,0.242,2.08,0.35
		c-0.139,0.511-0.247,1.011-0.287,1.427c-0.068,0.61-0.017,1.049-0.017,1.049c0.017,0.15,0.085,0.296,0.201,0.41
		c0.271,0.263,0.702,0.258,0.966-0.012c0,0,0.309-0.317,0.628-0.84c0.206-0.327,0.415-0.74,0.606-1.187
		c0.722,0.654,1.459,1.292,2.233,1.891c0.775,0.604,1.569,1.188,2.431,1.7c0.205,0.122,0.474,0.122,0.684-0.025
		c0.284-0.2,0.354-0.593,0.154-0.878c-0.573-0.82-1.215-1.569-1.874-2.298c-0.124-0.139-0.264-0.262-0.391-0.398
		c0.749,0.112,1.167,0.175,1.167,0.175c0.312,0.045,0.615-0.153,0.691-0.466c0.079-0.332-0.124-0.665-0.456-0.745
		c0,0-0.234-0.057-0.662-0.16c0.091-0.051,0.186-0.099,0.277-0.151C89.966,152.571,90.917,151.976,91.81,151.264z M64.14,147.973
		c1.342-1.604,2.66-3.181,3.953-4.725l6.421,0.698l-3.947,5.329C68.475,148.851,66.319,148.414,64.14,147.973z M55.561,154.591
		l-5.418-1.231l3.767-5.078c1.935,0.391,3.925,0.792,5.932,1.197C58.387,151.217,56.954,152.927,55.561,154.591z M64.358,136.928
		l1.216,5.397l0.005,0.024c0.023,0.102,0.067,0.196,0.122,0.283c-1.082,1.257-2.175,2.527-3.287,3.818
		c-0.572-1.595-1.139-3.177-1.696-4.732L64.358,136.928z M60.24,147.211c-2.074-0.392-4.13-0.779-6.126-1.155l-2.515-4.501
		l7.183,1.4C59.261,144.357,59.75,145.778,60.24,147.211z M58.549,161.943l-1.335-5.873c1.417-1.649,2.874-3.343,4.354-5.066
		c0.558,1.558,1.11,3.103,1.654,4.622L58.549,161.943z M72.405,158.042c-2.37-1.114-4.744-2.22-7.122-3.318
		c-0.507-1.476-1.021-2.973-1.54-4.485c2.095,0.394,4.17,0.784,6.186,1.162L72.405,158.042z"/>
	<path fill="#FFFFFF" d="M52.696,191.167c-0.37-0.915-1.119-1.37-2.033-1.598c-1.176-0.292-2.656,0.632-3.026,1.789
		c-0.313,0.979-0.185,1.641,0.096,2.587c0.568,1.913,3.817,1.983,4.396,0.039c0.006-0.019,0.014-0.038,0.02-0.057
		c0.064-0.068,0.139-0.123,0.196-0.199C52.897,192.998,53.041,192.022,52.696,191.167z"/>
	<path fill="#FFFFFF" d="M62.679,201.723c-0.464-0.607-1.233-0.934-1.993-0.846c-0.823,0.096-1.398,0.612-1.766,1.321
		c-0.205,0.396-0.393,0.773-0.525,1.202c-0.441,1.435,0.711,2.657,2.171,2.208c0.426-0.13,0.8-0.318,1.193-0.522
		c0.536-0.278,0.952-0.602,1.196-1.175C63.26,203.191,63.154,202.345,62.679,201.723z"/>
	<path fill="#FFFFFF" d="M804.803,204.457c0.15-0.12,0.227-0.32,0.18-0.52c-0.064-0.277-0.342-0.449-0.619-0.384
		c-0.906,0.213-1.768,0.521-2.615,0.856c-0.736,0.299-1.459,0.625-2.172,0.976c0.055-0.259,0.096-0.507,0.117-0.725
		c0.059-0.496,0.023-0.853,0.023-0.852c-0.014-0.129-0.07-0.254-0.17-0.35c-0.225-0.208-0.572-0.198-0.781,0.024
		c0,0-0.246,0.261-0.504,0.689c-0.15,0.247-0.311,0.552-0.461,0.881c-0.59-0.135-1.207-0.275-1.879-0.419
		c-2.078-0.445-4.496-0.994-7.098-1.527c-0.063-0.013-0.129-0.026-0.193-0.039l3.785-4.706c0.07-0.088,0.119-0.198,0.137-0.316
		c0.049-0.354-0.199-0.68-0.551-0.729l-0.023-0.003l-5.391-0.744c1.684-2.023,3.215-3.944,4.551-5.576
		c0.26-0.321,0.502-0.623,0.744-0.923c0.436,0.184,0.875,0.333,1.238,0.401c0.443,0.091,0.773,0.076,0.773,0.076
		c0.111-0.004,0.223-0.041,0.316-0.112c0.252-0.188,0.303-0.545,0.115-0.796c0,0-0.199-0.266-0.551-0.551
		c-0.195-0.166-0.443-0.337-0.715-0.5c0.012-0.014,0.02-0.025,0.031-0.039c0.137,0.014,0.275,0.005,0.412-0.044l0.02-0.007
		c0.867-0.314,1.721-0.663,2.561-1.045c0.84-0.384,1.666-0.802,2.461-1.31c0.166-0.106,0.264-0.302,0.232-0.509
		c-0.043-0.281-0.303-0.475-0.584-0.433c-0.932,0.139-1.83,0.366-2.717,0.628c-0.115,0.034-0.229,0.081-0.344,0.117
		c0.252-0.323,0.398-0.513,0.398-0.513c0.156-0.204,0.135-0.5-0.057-0.678c-0.203-0.189-0.521-0.177-0.711,0.026
		c0,0-0.277,0.3-0.777,0.839c-0.014-0.121-0.021-0.242-0.037-0.363c-0.098-0.771-0.219-1.542-0.422-2.309
		c-0.051-0.186-0.201-0.336-0.402-0.374c-0.279-0.054-0.549,0.13-0.602,0.41c-0.148,0.78-0.215,1.557-0.256,2.333
		c-0.041,0.737-0.041,1.472-0.025,2.208c-0.141,0.155-0.279,0.307-0.43,0.473c-0.34-0.124-0.674-0.227-0.957-0.282
		c-0.443-0.092-0.77-0.084-0.77-0.084c-0.117,0.003-0.234,0.042-0.334,0.119c-0.244,0.191-0.287,0.545-0.098,0.79
		c0,0,0.203,0.259,0.555,0.543c0.105,0.088,0.246,0.18,0.377,0.272c-0.197,0.22-0.389,0.432-0.594,0.665
		c-1.404,1.595-3.066,3.437-4.803,5.445c-0.15,0.173-0.309,0.358-0.459,0.533l-1.082-5.337c-0.039-0.187-0.141-0.361-0.301-0.487
		c-0.361-0.283-0.881-0.22-1.164,0.14l-0.01,0.012l-3.434,4.376c-0.078-0.212-0.156-0.431-0.23-0.641
		c-0.924-2.555-1.834-4.923-2.588-6.961c-0.236-0.633-0.461-1.218-0.678-1.779c0.049-0.064,0.102-0.126,0.133-0.205
		c0.602-1.542,1.146-3.107,1.443-4.772c0.033-0.194-0.045-0.399-0.221-0.517c-0.234-0.158-0.555-0.096-0.713,0.14
		c-0.625,0.93-1.135,1.905-1.598,2.9c-0.09-0.23-0.182-0.466-0.26-0.668c-0.039-0.101-0.076-0.193-0.113-0.287
		c0.113-0.112,0.211-0.244,0.256-0.41c0.229-0.827,0.443-1.658,0.611-2.502c0.172-0.843,0.318-1.694,0.383-2.567
		c0.016-0.197-0.086-0.394-0.271-0.492c-0.252-0.133-0.561-0.037-0.693,0.213c-0.41,0.775-0.738,1.573-1.041,2.379
		c-0.162,0.425-0.311,0.854-0.451,1.284c-0.418-0.248-0.828-0.509-1.258-0.737c-0.791-0.421-1.602-0.811-2.461-1.122
		c-0.184-0.066-0.396-0.025-0.543,0.124c-0.199,0.203-0.195,0.528,0.006,0.728c0.652,0.641,1.355,1.203,2.076,1.733
		c0.721,0.533,1.467,1.029,2.225,1.5c0.051,0.169,0.105,0.347,0.166,0.544c0.037,0.12,0.082,0.268,0.125,0.399
		c-0.859-0.388-1.74-0.733-2.666-0.992c-0.186-0.052-0.395,0.003-0.529,0.161c-0.186,0.216-0.16,0.541,0.057,0.725
		c1.213,1.038,2.547,1.85,3.916,2.594c0.207,0.663,0.43,1.361,0.68,2.123c0.684,2.063,1.451,4.48,2.324,7.053
		c0.121,0.351,0.246,0.712,0.367,1.069l-6.779-1.372c-0.205-0.042-0.428-0.014-0.627,0.095c-0.445,0.245-0.607,0.805-0.363,1.25
		l0.004,0.006l2.23,4.06c-2.293-0.426-4.453-0.771-6.318-1.104c-0.104-0.017-0.201-0.033-0.301-0.05
		c0.115-0.561,0.174-1.121,0.178-1.563c0.01-0.5-0.059-0.852-0.059-0.852c-0.025-0.126-0.094-0.247-0.205-0.331
		c-0.24-0.187-0.586-0.142-0.773,0.099c0,0-0.219,0.283-0.436,0.735c-0.209,0.427-0.426,1.003-0.576,1.602
		c-0.104-0.017-0.201-0.032-0.301-0.048c-0.051-0.123-0.125-0.236-0.229-0.332c-0.592-0.536-1.197-1.059-1.83-1.549
		c-0.633-0.492-1.279-0.969-1.982-1.387c-0.168-0.1-0.387-0.099-0.557,0.021c-0.232,0.163-0.289,0.483-0.127,0.716
		c0.469,0.669,0.99,1.279,1.527,1.874c0.059,0.064,0.123,0.121,0.182,0.184c-0.969-0.146-1.514-0.223-1.514-0.223
		c-0.25-0.035-0.496,0.125-0.559,0.376c-0.066,0.27,0.098,0.543,0.367,0.611c0,0,0.469,0.117,1.303,0.317
		c-0.098,0.054-0.195,0.104-0.289,0.157c-0.787,0.458-1.563,0.943-2.291,1.524c-0.15,0.12-0.229,0.32-0.18,0.521
		c0.064,0.276,0.342,0.449,0.617,0.383c0.906-0.213,1.768-0.521,2.615-0.856c0.801-0.325,1.586-0.678,2.355-1.063
		c0.213,0.049,0.432,0.099,0.656,0.15c-0.016,0.18-0.025,0.354-0.025,0.51c-0.01,0.501,0.068,0.854,0.068,0.854
		c0.025,0.121,0.092,0.234,0.193,0.318c0.24,0.192,0.592,0.154,0.783-0.086c0,0,0.227-0.282,0.443-0.733
		c0.074-0.145,0.146-0.311,0.215-0.486c0.145,0.033,0.287,0.065,0.438,0.098c1.998,0.424,4.311,0.964,6.801,1.463l-3.387,4.593
		l-0.004,0.007c-0.074,0.102-0.129,0.22-0.158,0.351c-0.111,0.504,0.207,1.001,0.711,1.112l4.908,1.077
		c-1.512,1.812-2.883,3.546-4.096,5.025c-0.357,0.44-0.691,0.859-1.012,1.26c-0.277-0.14-0.547-0.258-0.783-0.347
		c-0.473-0.183-0.83-0.24-0.83-0.24c-0.131-0.021-0.268,0.004-0.385,0.08c-0.258,0.165-0.33,0.505-0.166,0.761
		c0,0,0.195,0.304,0.553,0.665c0.145,0.148,0.318,0.31,0.508,0.471c-0.08,0.007-0.16,0.007-0.238,0.036l-0.02,0.007
		c-0.867,0.314-1.721,0.662-2.561,1.046c-0.84,0.383-1.668,0.802-2.461,1.31c-0.166,0.105-0.264,0.302-0.232,0.509
		c0.041,0.281,0.305,0.475,0.584,0.433c0.932-0.139,1.83-0.366,2.717-0.629c0.043-0.012,0.086-0.028,0.129-0.041
		c-0.113,0.146-0.189,0.246-0.189,0.246c-0.152,0.202-0.135,0.493,0.055,0.671c0.203,0.191,0.521,0.182,0.713-0.021
		c0,0,0.273-0.29,0.766-0.821c0.02,0.179,0.031,0.358,0.055,0.537c0.098,0.771,0.219,1.542,0.422,2.31
		c0.049,0.185,0.201,0.335,0.402,0.374c0.279,0.053,0.549-0.131,0.602-0.411c0.15-0.78,0.215-1.557,0.256-2.333
		c0.043-0.776,0.043-1.551,0.023-2.325c0-0.019-0.008-0.038-0.012-0.056c0.02-0.021,0.037-0.04,0.057-0.061
		c0.504,0.319,1.031,0.59,1.463,0.747c0.473,0.182,0.836,0.232,0.834,0.232c0.125,0.018,0.256-0.006,0.371-0.077
		c0.26-0.161,0.34-0.503,0.182-0.764c0,0-0.193-0.311-0.549-0.673c-0.266-0.278-0.623-0.587-1.021-0.877
		c0.297-0.331,0.605-0.673,0.928-1.035c1.221-1.39,2.652-2.965,4.139-4.68l1.258,5.36l0.004,0.014
		c0.047,0.201,0.166,0.387,0.35,0.516c0.396,0.281,0.945,0.186,1.227-0.211l4.182-5.921c0.104,0.292,0.209,0.59,0.313,0.878
		c0.906,2.562,1.832,4.923,2.586,6.961c0.227,0.601,0.443,1.167,0.648,1.702c-0.574,1.488-1.094,3-1.379,4.607
		c-0.033,0.194,0.045,0.399,0.219,0.517c0.236,0.158,0.555,0.096,0.715-0.14c0.541-0.807,0.996-1.648,1.41-2.506
		c0.125,0.322,0.242,0.616,0.348,0.883c-0.012,0.031-0.035,0.055-0.043,0.088c-0.23,0.827-0.445,1.658-0.611,2.502
		c-0.174,0.843-0.32,1.694-0.385,2.567c-0.016,0.197,0.086,0.394,0.271,0.492c0.252,0.133,0.561,0.037,0.693-0.213
		c0.41-0.775,0.738-1.573,1.041-2.379c0.141-0.37,0.271-0.743,0.395-1.118c0.059-0.029,0.109-0.065,0.15-0.113
		c0.389,0.229,0.768,0.472,1.164,0.683c0.791,0.421,1.602,0.811,2.461,1.122c0.184,0.065,0.398,0.025,0.543-0.124
		c0.199-0.203,0.195-0.528-0.006-0.728c-0.652-0.641-1.355-1.203-2.076-1.733c-0.721-0.533-1.465-1.029-2.223-1.5l-0.018-0.011
		c-0.074-0.045-0.154-0.081-0.242-0.105c-0.023-0.006-0.047,0-0.07-0.005c-0.092-0.297-0.191-0.624-0.303-0.98
		c0.965,0.453,1.955,0.856,3.006,1.15c0.186,0.052,0.396-0.004,0.529-0.162c0.186-0.216,0.16-0.541-0.057-0.726
		c-1.279-1.093-2.689-1.94-4.139-2.717l-0.014-0.006c-0.029-0.017-0.063-0.032-0.096-0.045c-0.006-0.002-0.012-0.001-0.018-0.003
		c-0.152-0.478-0.313-0.979-0.482-1.502c-0.686-2.063-1.434-4.486-2.328-7.052c-0.096-0.279-0.193-0.567-0.291-0.85
		c2.01,0.875,4.021,1.753,6.041,2.608l0.027,0.011c0.158,0.066,0.342,0.072,0.512,0c0.336-0.142,0.494-0.528,0.352-0.864
		l-2.623-6.232c0.107,0.02,0.215,0.04,0.32,0.06c2.611,0.484,5.059,0.885,7.152,1.254c0.598,0.104,1.158,0.197,1.697,0.285
		c-0.113,0.417-0.203,0.824-0.234,1.164c-0.057,0.497-0.014,0.855-0.014,0.855c0.014,0.123,0.068,0.242,0.164,0.335
		c0.221,0.214,0.572,0.21,0.787-0.01c0,0,0.252-0.258,0.512-0.686c0.168-0.267,0.338-0.604,0.494-0.967
		c0.59,0.534,1.191,1.053,1.822,1.542c0.633,0.492,1.279,0.969,1.982,1.387c0.168,0.1,0.387,0.099,0.557-0.02
		c0.232-0.164,0.289-0.484,0.127-0.717c-0.469-0.669-0.99-1.279-1.529-1.874c-0.1-0.113-0.215-0.214-0.318-0.325
		c0.611,0.091,0.951,0.143,0.951,0.143c0.256,0.037,0.502-0.125,0.564-0.38c0.064-0.271-0.102-0.542-0.371-0.607
		c0,0-0.191-0.046-0.541-0.131c0.074-0.042,0.152-0.081,0.227-0.123C803.299,205.522,804.074,205.038,804.803,204.457z
		 M782.236,201.772c1.094-1.308,2.17-2.594,3.225-3.854l5.236,0.569l-3.219,4.346C785.771,202.489,784.014,202.132,782.236,201.772z
		 M775.24,207.17l-4.42-1.004l3.072-4.142c1.578,0.318,3.201,0.646,4.838,0.977C777.545,204.418,776.375,205.813,775.24,207.17z
		 M782.414,192.765l0.992,4.402l0.004,0.02c0.018,0.083,0.055,0.16,0.1,0.231c-0.883,1.025-1.773,2.061-2.682,3.114
		c-0.467-1.301-0.928-2.591-1.383-3.859L782.414,192.765z M779.055,201.151c-1.691-0.319-3.367-0.635-4.996-0.942l-2.051-3.671
		l5.859,1.142C778.258,198.824,778.656,199.982,779.055,201.151z M777.678,213.166l-1.09-4.79c1.156-1.345,2.344-2.727,3.551-4.131
		c0.455,1.271,0.906,2.53,1.35,3.77L777.678,213.166z M788.977,209.984c-1.934-0.908-3.869-1.81-5.809-2.706
		c-0.412-1.203-0.832-2.424-1.256-3.657c1.709,0.321,3.4,0.639,5.045,0.948L788.977,209.984z"/>
	<path fill="#FFFFFF" d="M796.035,88.564c0.174,0.084,0.387,0.066,0.547-0.063c0.223-0.178,0.258-0.502,0.078-0.724
		c-0.584-0.725-1.234-1.368-1.902-1.987c-0.59-0.534-1.195-1.046-1.82-1.536c0.258-0.063,0.498-0.134,0.705-0.208
		c0.471-0.163,0.777-0.348,0.777-0.348c0.109-0.067,0.199-0.173,0.24-0.305c0.092-0.292-0.068-0.602-0.359-0.694
		c0,0-0.342-0.108-0.838-0.155c-0.289-0.029-0.633-0.041-0.994-0.034c-0.135-0.591-0.275-1.208-0.436-1.875
		c-0.498-2.066-1.049-4.484-1.693-7.061c-0.016-0.062-0.033-0.128-0.049-0.191l5.881,1.376c0.109,0.025,0.229,0.023,0.344-0.014
		c0.34-0.109,0.527-0.473,0.418-0.812l-0.006-0.021l-1.662-5.182c2.551,0.642,4.947,1.192,6.994,1.689
		c0.402,0.096,0.779,0.184,1.154,0.271c0.023,0.472,0.08,0.934,0.176,1.29c0.109,0.439,0.266,0.731,0.266,0.731
		c0.053,0.098,0.133,0.182,0.238,0.236c0.279,0.145,0.623,0.037,0.768-0.242c0,0,0.154-0.294,0.26-0.734
		c0.064-0.249,0.111-0.546,0.141-0.861c0.018,0.005,0.031,0.007,0.049,0.011c0.047,0.129,0.113,0.25,0.219,0.353l0.016,0.015
		c0.658,0.645,1.342,1.265,2.049,1.855c0.711,0.592,1.445,1.156,2.246,1.653c0.168,0.104,0.387,0.105,0.559-0.012
		c0.236-0.159,0.297-0.479,0.139-0.713c-0.529-0.781-1.123-1.493-1.742-2.177c-0.082-0.09-0.172-0.171-0.254-0.259
		c0.4,0.086,0.633,0.136,0.633,0.136c0.252,0.052,0.51-0.094,0.588-0.343c0.082-0.266-0.066-0.548-0.332-0.631
		c0,0-0.391-0.12-1.094-0.337c0.105-0.064,0.209-0.124,0.313-0.191c0.652-0.422,1.295-0.864,1.898-1.379
		c0.146-0.125,0.217-0.326,0.164-0.524c-0.072-0.276-0.355-0.438-0.631-0.366c-0.768,0.204-1.496,0.481-2.213,0.779
		c-0.684,0.282-1.346,0.601-2.002,0.933c-0.201-0.061-0.396-0.12-0.613-0.184c-0.035-0.36-0.086-0.705-0.158-0.984
		c-0.109-0.439-0.258-0.731-0.258-0.731c-0.053-0.104-0.139-0.193-0.252-0.249c-0.277-0.138-0.615-0.024-0.754,0.253
		c0,0-0.146,0.295-0.25,0.735c-0.033,0.134-0.055,0.301-0.082,0.458c-0.283-0.083-0.557-0.163-0.855-0.248
		c-2.047-0.576-4.426-1.276-6.988-1.974c-0.221-0.06-0.455-0.123-0.678-0.183l4.342-3.286c0.152-0.116,0.266-0.282,0.311-0.482
		c0.098-0.447-0.184-0.89-0.631-0.989l-0.016-0.003l-5.43-1.202c0.158-0.162,0.32-0.326,0.479-0.485
		c1.902-1.938,3.645-3.783,5.154-5.345c0.469-0.487,0.9-0.943,1.313-1.381c0.078,0.016,0.156,0.037,0.24,0.031
		c1.65-0.124,3.299-0.31,4.928-0.764c0.189-0.054,0.34-0.213,0.371-0.421c0.041-0.281-0.154-0.543-0.436-0.583
		c-1.109-0.161-2.209-0.199-3.305-0.185c0.168-0.181,0.34-0.367,0.49-0.524c0.072-0.08,0.141-0.153,0.209-0.227
		c0.15,0.055,0.311,0.085,0.48,0.055c0.844-0.153,1.686-0.319,2.52-0.532c0.834-0.21,1.664-0.446,2.48-0.766
		c0.184-0.072,0.318-0.248,0.326-0.458c0.01-0.284-0.209-0.521-0.494-0.533c-0.875-0.033-1.736,0.016-2.594,0.092
		c-0.453,0.037-0.904,0.09-1.354,0.149c0.043-0.484,0.102-0.967,0.119-1.454c0.039-0.895,0.039-1.795-0.053-2.704
		c-0.02-0.194-0.148-0.368-0.346-0.435c-0.27-0.092-0.561,0.051-0.652,0.32c-0.297,0.866-0.498,1.742-0.666,2.622
		c-0.168,0.88-0.293,1.767-0.389,2.655c-0.131,0.119-0.268,0.245-0.42,0.384c-0.092,0.086-0.205,0.191-0.305,0.285
		c-0.023-0.942-0.094-1.885-0.26-2.832c-0.033-0.191-0.174-0.355-0.375-0.409c-0.273-0.073-0.557,0.091-0.629,0.365
		c-0.41,1.543-0.566,3.096-0.645,4.652c-0.506,0.475-1.041,0.977-1.619,1.532c-1.564,1.508-3.412,3.246-5.352,5.147
		c-0.266,0.26-0.537,0.529-0.807,0.793l-1.697-6.706c-0.051-0.203-0.172-0.391-0.355-0.523c-0.414-0.297-0.988-0.2-1.285,0.212
		l-0.004,0.006l-2.693,3.768c-0.607-2.251-1.232-4.348-1.74-6.174c-0.029-0.1-0.057-0.195-0.084-0.292
		c0.555-0.14,1.084-0.33,1.484-0.517c0.455-0.208,0.742-0.421,0.742-0.421c0.104-0.077,0.182-0.191,0.211-0.327
		c0.064-0.298-0.125-0.591-0.424-0.654c0,0-0.35-0.076-0.852-0.075c-0.475-0.003-1.088,0.05-1.693,0.173
		c-0.029-0.101-0.057-0.194-0.086-0.292c0.088-0.099,0.158-0.214,0.199-0.349c0.229-0.765,0.438-1.537,0.604-2.32
		c0.172-0.783,0.32-1.573,0.395-2.386c0.018-0.195-0.078-0.392-0.26-0.494c-0.248-0.139-0.563-0.051-0.701,0.197
		c-0.4,0.711-0.725,1.445-1.027,2.188c-0.033,0.081-0.057,0.163-0.088,0.243c-0.287-0.936-0.455-1.46-0.455-1.46
		c-0.076-0.241-0.326-0.394-0.58-0.341c-0.271,0.056-0.447,0.322-0.393,0.595c0,0,0.098,0.473,0.277,1.312
		c-0.09-0.064-0.178-0.131-0.266-0.192c-0.754-0.511-1.527-1-2.365-1.406c-0.174-0.084-0.389-0.067-0.549,0.063
		c-0.221,0.177-0.256,0.502-0.078,0.723c0.584,0.725,1.236,1.368,1.904,1.987c0.639,0.581,1.297,1.136,1.979,1.663
		c0.047,0.212,0.098,0.431,0.148,0.656c-0.17,0.064-0.33,0.13-0.473,0.198c-0.455,0.209-0.74,0.431-0.74,0.431
		c-0.098,0.075-0.172,0.185-0.203,0.313c-0.068,0.299,0.117,0.599,0.418,0.669c0,0,0.352,0.083,0.852,0.083
		c0.162,0.003,0.344-0.003,0.531-0.018c0.033,0.146,0.066,0.288,0.102,0.437c0.48,1.985,0.996,4.304,1.623,6.765l-5.605-1.066
		l-0.008-0.001c-0.125-0.023-0.256-0.021-0.385,0.009c-0.502,0.119-0.813,0.621-0.695,1.122l1.152,4.891
		c-2.285-0.578-4.443-1.064-6.303-1.518c-0.551-0.131-1.072-0.251-1.572-0.366c0.006-0.312-0.004-0.604-0.027-0.856
		c-0.039-0.505-0.143-0.853-0.143-0.853c-0.037-0.126-0.119-0.239-0.238-0.312c-0.26-0.16-0.6-0.079-0.758,0.179
		c0,0.001-0.189,0.309-0.361,0.786c-0.07,0.194-0.141,0.422-0.205,0.662c-0.041-0.069-0.074-0.141-0.135-0.199l-0.016-0.015
		c-0.658-0.645-1.34-1.265-2.051-1.856c-0.709-0.591-1.443-1.156-2.244-1.652c-0.168-0.104-0.387-0.106-0.561,0.011
		c-0.234,0.159-0.295,0.48-0.137,0.713c0.529,0.781,1.123,1.493,1.742,2.177c0.029,0.034,0.063,0.066,0.092,0.099
		c-0.18-0.039-0.303-0.064-0.303-0.064c-0.248-0.05-0.502,0.093-0.582,0.339c-0.084,0.266,0.063,0.549,0.328,0.634
		c0,0,0.379,0.121,1.072,0.335c-0.154,0.095-0.311,0.184-0.461,0.282c-0.654,0.422-1.295,0.864-1.898,1.38
		c-0.146,0.124-0.217,0.326-0.164,0.524c0.074,0.275,0.355,0.438,0.631,0.364c0.768-0.202,1.496-0.48,2.213-0.779
		c0.719-0.296,1.418-0.632,2.107-0.984c0.016-0.009,0.029-0.024,0.045-0.035c0.027,0.009,0.053,0.017,0.078,0.024
		c-0.068,0.592-0.084,1.185-0.039,1.642c0.041,0.505,0.152,0.854,0.152,0.853c0.037,0.12,0.115,0.227,0.229,0.3
		c0.258,0.166,0.602,0.089,0.768-0.167c0,0,0.197-0.308,0.369-0.785c0.137-0.361,0.26-0.817,0.35-1.302
		c0.426,0.125,0.869,0.255,1.334,0.39c1.781,0.498,3.82,1.107,6.01,1.705l-4.287,3.454l-0.012,0.009
		c-0.16,0.13-0.277,0.318-0.314,0.539c-0.082,0.479,0.242,0.933,0.723,1.014l7.146,1.208c-0.219,0.221-0.441,0.444-0.656,0.663
		c-1.918,1.924-3.645,3.782-5.156,5.342c-0.445,0.464-0.859,0.906-1.254,1.322c-1.592,0.125-3.18,0.312-4.75,0.75
		c-0.189,0.054-0.34,0.214-0.371,0.421c-0.041,0.281,0.152,0.542,0.436,0.583c0.961,0.14,1.916,0.185,2.869,0.188
		c-0.236,0.252-0.451,0.485-0.646,0.695c-0.031,0.003-0.064-0.009-0.098-0.001c-0.844,0.151-1.688,0.317-2.52,0.531
		c-0.836,0.209-1.666,0.445-2.482,0.764c-0.184,0.072-0.316,0.248-0.326,0.458c-0.01,0.285,0.211,0.522,0.494,0.534
		c0.875,0.034,1.738-0.016,2.594-0.091c0.395-0.033,0.787-0.078,1.18-0.128c0.051,0.04,0.105,0.069,0.166,0.086
		c-0.037,0.449-0.094,0.895-0.111,1.345c-0.037,0.896-0.039,1.795,0.053,2.704c0.02,0.194,0.15,0.369,0.346,0.435
		c0.27,0.093,0.561-0.051,0.654-0.32c0.295-0.865,0.498-1.742,0.664-2.622c0.168-0.88,0.293-1.765,0.391-2.653l0.002-0.021
		c0.01-0.086,0.006-0.174-0.01-0.264c-0.004-0.024-0.02-0.042-0.025-0.065c0.229-0.21,0.48-0.442,0.752-0.696
		c0.01,1.066,0.074,2.133,0.264,3.207c0.035,0.191,0.176,0.356,0.375,0.408c0.275,0.073,0.557-0.09,0.631-0.365
		c0.432-1.626,0.584-3.265,0.658-4.908v-0.014c0.002-0.035,0.002-0.07-0.002-0.106c0-0.006-0.004-0.012-0.004-0.017
		c0.365-0.344,0.748-0.706,1.145-1.085c1.564-1.511,3.424-3.234,5.352-5.15c0.209-0.207,0.426-0.42,0.639-0.63
		c0.082,2.19,0.16,4.383,0.264,6.574v0.029c0.01,0.171,0.084,0.339,0.223,0.461c0.273,0.242,0.689,0.217,0.932-0.056l4.484-5.062
		c0.027,0.104,0.057,0.211,0.084,0.314c0.693,2.563,1.391,4.943,1.963,6.99c0.164,0.584,0.324,1.129,0.477,1.653
		c-0.424,0.078-0.83,0.175-1.15,0.292c-0.471,0.165-0.775,0.358-0.775,0.358c-0.105,0.065-0.189,0.167-0.23,0.292
		c-0.1,0.292,0.057,0.607,0.348,0.706c0.002,0,0.342,0.115,0.84,0.165c0.314,0.036,0.691,0.044,1.086,0.027
		c-0.227,0.762-0.434,1.529-0.602,2.309c-0.17,0.784-0.318,1.574-0.393,2.388c-0.016,0.194,0.078,0.391,0.26,0.494
		c0.248,0.138,0.561,0.05,0.701-0.197c0.4-0.711,0.725-1.446,1.027-2.188c0.059-0.14,0.1-0.287,0.156-0.428
		c0.182,0.59,0.281,0.919,0.281,0.919c0.078,0.246,0.33,0.398,0.588,0.345c0.271-0.059,0.445-0.326,0.387-0.599
		c0,0-0.041-0.192-0.117-0.543c0.07,0.049,0.139,0.102,0.209,0.151C794.424,87.67,795.197,88.159,796.035,88.564z M788.691,67.059
		c1.652,0.421,3.277,0.834,4.869,1.24l1.752,4.967l-5.311-1.021C789.576,70.557,789.135,68.816,788.691,67.059z M780.797,63.087
		l-1.006-4.418l5.063,0.978c0.395,1.56,0.803,3.166,1.213,4.783C784.275,63.974,782.514,63.523,780.797,63.087z M796.889,63.321
		l-3.539,2.799l-0.018,0.013c-0.066,0.053-0.119,0.118-0.164,0.189c-1.307-0.352-2.625-0.707-3.967-1.069
		c0.971-0.983,1.934-1.958,2.879-2.917L796.889,63.321z M787.875,63.922c-0.443-1.663-0.885-3.312-1.313-4.912l2.422-3.438
		l1.506,5.775C789.627,62.196,788.756,63.057,787.875,63.922z M776.447,67.878l3.848-3.054c1.711,0.46,3.471,0.934,5.26,1.414
		c-0.947,0.96-1.889,1.911-2.814,2.848L776.447,67.878z M784.205,76.688c-0.018-2.135-0.043-4.271-0.074-6.407
		c0.906-0.893,1.826-1.8,2.754-2.715c0.449,1.679,0.895,3.342,1.328,4.958L784.205,76.688z"/>
	<path fill="#FFFFFF" d="M534.342,374.226c1.486,0.379,2.947,0.75,4.379,1.115l1.576,4.466l-4.775-0.918
		C535.137,377.371,534.742,375.807,534.342,374.226z M527.244,370.654l-0.904-3.973l4.551,0.88c0.355,1.402,0.723,2.847,1.092,4.301
		C530.373,371.452,528.787,371.047,527.244,370.654z M541.713,370.865l-3.182,2.517l-0.016,0.012
		c-0.061,0.047-0.107,0.106-0.148,0.17c-1.176-0.315-2.359-0.636-3.566-0.961c0.873-0.885,1.738-1.761,2.59-2.623L541.713,370.865z
		 M533.607,371.405c-0.398-1.494-0.795-2.977-1.18-4.416l2.178-3.091l1.354,5.193C535.184,369.854,534.4,370.627,533.607,371.405z
		 M523.332,374.963l3.461-2.746c1.539,0.413,3.121,0.84,4.73,1.271c-0.854,0.863-1.699,1.718-2.531,2.561L523.332,374.963z
		 M530.309,382.885c-0.016-1.921-0.039-3.84-0.066-5.762c0.814-0.802,1.641-1.617,2.475-2.44c0.406,1.51,0.807,3.006,1.195,4.458
		L530.309,382.885z"/>
	<path fill="#FFFFFF" d="M282.605,392.338c-0.865-1.132-2.834-1.579-3.961-0.527c-0.343,0.321-0.686,0.643-1.028,0.963
		c-0.568,0.532-0.979,1.07-1.097,1.866c-0.111,0.761,0.094,1.549,0.561,2.16c0.452,0.591,1.131,0.988,1.866,1.097
		c1.09,0.16,1.968-0.317,2.688-1.086c0.321-0.343,0.642-0.686,0.963-1.029C283.45,394.869,283.318,393.272,282.605,392.338z"/>
	<path fill="#FFFFFF" d="M301.682,403.67c-0.15-1.297-1.242-1.937-2.442-1.937c-1.203,0-2.063,1.354-1.938,2.442
		c0.151,1.298,1.243,1.938,2.443,1.938C300.949,406.113,301.808,404.76,301.682,403.67z"/>
	<path fill="#FFFFFF" d="M295.086,377.68c-3.085,0-2.493,4.75,0.549,4.75C298.72,382.43,298.128,377.68,295.086,377.68z"/>
	<path fill="#FFFFFF" d="M190.688,258.274c-1.541-2.017-4.859-1.153-5.227,1.357c-0.069,0.473-0.124,0.903-0.12,1.391
		c0.006,0.595,0.44,1.231,0.893,1.58c0.526,0.406,1.057,0.467,1.695,0.472c0.251,0.001,0.518-0.072,0.768-0.108
		C190.887,262.645,192.076,260.09,190.688,258.274z"/>
	<path fill="#FFFFFF" d="M203.065,211.493c-3.327,0-2.688,5.123,0.592,5.123C206.984,216.616,206.345,211.493,203.065,211.493z"/>
	<path fill="#FFFFFF" d="M211.329,214.664c-0.176-0.471-0.626-0.646-1.087-0.646c0,0,0,0-0.001,0c-0.569,0-0.976,0.64-0.916,1.156
		c0.071,0.614,0.588,0.917,1.156,0.917c0.349,0,0.723-0.314,0.84-0.628c-0.025,0.069,0.182-0.329,0.138-0.447
		C211.416,214.898,211.372,214.781,211.329,214.664z"/>
	<path fill="#FFFFFF" d="M163.025,157.144c-3.781,0-3.056,5.822,0.672,5.822C167.478,162.966,166.752,157.144,163.025,157.144z"/>
	<path fill="#FFFFFF" d="M170.765,172.37c-0.1-0.865-0.67-1.626-1.471-1.966c-0.92-0.39-1.901-0.131-2.575,0.472
		c-0.055,0.042-0.112,0.08-0.163,0.127c-0.715,0.673-0.987,1.684-0.609,2.618c0.68,1.683,3.309,2.207,4.325,0.522
		C170.616,173.573,170.845,173.057,170.765,172.37z"/>
	<path fill="#FFFFFF" d="M174.213,162.774c-1.664,0-1.345,2.562,0.295,2.562C176.172,165.335,175.853,162.774,174.213,162.774z"/>
	<path fill="#FFFFFF" d="M183.728,78.386c-1.606-0.236-3.106,1.175-2.892,2.806c0.117,0.892,0.536,1.712,1.282,2.239
		c0.771,0.543,1.702,0.551,2.477,0.006c0.719-0.506,1.167-1.306,1.28-2.169C186.056,79.895,185.112,78.589,183.728,78.386z"/>
	<path fill="#FFFFFF" d="M179.109,97.877c-2.827,0-2.285,4.355,0.504,4.355C182.44,102.232,181.898,97.877,179.109,97.877z"/>
	<path fill="#FFFFFF" d="M66.801,63.912c-0.006-0.045-0.013-0.091-0.019-0.137c-0.145-1.086-0.976-1.972-2.069-2.132
		c-1.302-0.191-2.59,0.745-2.765,2.06c-0.01,0.07-0.019,0.141-0.028,0.211c-0.323,0.695-0.371,1.548-0.068,2.205
		c0.167,0.364,0.338,0.738,0.594,1.049c1.005,1.225,2.812,1.241,3.823,0.009c0.248-0.302,0.42-0.661,0.583-1.015
		C67.161,65.491,67.127,64.619,66.801,63.912z"/>
	<path fill="#FFFFFF" d="M81.248,66.837c-0.13-1.118-1.07-1.668-2.104-1.668c-1.036,0-1.777,1.166-1.669,2.104
		c0.13,1.118,1.07,1.668,2.104,1.668C80.615,68.941,81.356,67.775,81.248,66.837z"/>
	<path fill="#FFFFFF" d="M106.507,117.504c-0.373-0.708-1.113-1.136-1.913-0.812c-0.022,0.009-0.046,0.019-0.069,0.028
		c-1.148,0.465-1.195,2.185-0.022,2.659c0.022,0.009,0.046,0.019,0.068,0.028c0.787,0.319,1.551-0.06,1.927-0.778
		C106.677,118.284,106.69,117.851,106.507,117.504z"/>
	<path fill="#FFFFFF" d="M242.104,55.831c-1.317,0.153-1.967,1.262-1.967,2.481c0,0.205,0.08,0.438,0.116,0.638
		c0.172,0.945,0.815,1.711,1.801,1.855c1.174,0.173,2.199-0.657,2.406-1.792c0.08-0.441,0.124-0.755,0.124-1.214
		C244.584,56.576,243.21,55.702,242.104,55.831z"/>
	<path fill="#FFFFFF" d="M252.259,66.835c-0.131-1.125-1.077-1.679-2.117-1.679c-1.043,0-1.789,1.173-1.68,2.117
		c0.131,1.125,1.077,1.679,2.117,1.679C251.623,68.953,252.369,67.78,252.259,66.835z"/>
	<g>
		<path fill="#FFFFFF" d="M532.744,60.434c-1.781-0.262-3.096,1.235-3.016,2.925c0.039,0.812,0.209,1.701,0.746,2.324
			c0.287,0.527,0.686,0.995,1.258,1.226c0.08,0.036,0.117,0.05,0.115,0.045c0.133,0.081,0.264,0.161,0.398,0.236
			c0.279,0.151,0.596,0.226,0.91,0.269c0.932,0.126,1.686-0.651,1.613-1.566c-0.01-0.122-0.02-0.243-0.029-0.364
			c-0.012-0.055-0.021-0.11-0.033-0.164c0.023-0.095,0.059-0.188,0.074-0.284c-0.008,0.009-0.01-0.071-0.01-0.183
			c0.086-0.218,0.154-0.441,0.174-0.634c0.033-0.279,0.043-0.559,0.027-0.841c-0.006,0.763,0.002,0.173,0.01,0.017
			C535.047,61.995,534.275,60.659,532.744,60.434z"/>
		<path fill="#FFFFFF" d="M534.787,65.051c0,0.01-0.006,0.019-0.006,0.029C534.783,65.077,534.785,65.068,534.787,65.051z"/>
	</g>
	<path fill="#FFFFFF" d="M539.406,71.701c-0.227-0.136-0.455-0.272-0.684-0.408c-0.697-0.416-1.4-0.624-2.195-0.302
		c-0.729,0.294-1.256,0.966-1.369,1.743c-0.117,0.787,0.211,1.598,0.842,2.084c0.857,0.662,1.842,0.527,2.715,0.007
		c0.229-0.137,0.457-0.273,0.686-0.41C540.289,73.884,540.299,72.232,539.406,71.701z"/>
	<path fill="#FFFFFF" d="M555.697,63.414c-0.898,0.253-1.51,0.815-1.51,1.806c0.002,1.041,1.137,1.366,1.918,1.586
		c1.125,0.315,2.133-0.928,2.014-1.955C557.975,63.613,556.787,63.108,555.697,63.414z"/>
	<path fill="#FFFFFF" d="M629.24,61.983c-0.813-0.345-1.523-0.13-2.246,0.284c-0.533,0.305-0.945,0.88-1.158,1.447
		c-0.049,0.129-0.328,0.639-0.064,0.218c-0.035,0.057-0.143,0.227-0.205,0.331c-0.029,0.037-0.057,0.076-0.086,0.111
		c-0.422,0.505-0.219,1.15,0.199,1.562c0.531,0.521,1.316,0.548,1.988,0.347c0.053-0.016,0.104-0.038,0.154-0.057
		c1.455,0.388,2.951-0.904,2.773-2.429C630.504,62.999,629.979,62.297,629.24,61.983z"/>
	<path fill="#FFFFFF" d="M332.611,64.297c-0.32-0.793-1.053-1.368-1.899-1.493c-0.858-0.126-1.742,0.231-2.271,0.918
		c-0.611,0.792-0.747,2.181-0.007,2.959c0.47,0.495,0.925,0.945,1.632,1.049c0.958,0.141,1.604-0.394,2.217-1.04
		C332.853,66.089,332.906,65.027,332.611,64.297z"/>
	<path fill="#FFFFFF" d="M338.129,73.052c-2.601,0-2.103,4.006,0.463,4.006C341.193,77.058,340.695,73.052,338.129,73.052z"/>
	<path fill="#FFFFFF" d="M439.26,132.72c-0.186-1.605-1.65-2.713-3.234-2.564c-2.064,0.194-3.773,2.103-3.447,4.221
		c0.191,1.249,1.102,2.263,2.379,2.451c1.068,0.157,2.027-0.321,2.619-1.116c0.434-0.213,0.834-0.534,1.094-0.872
		C439.133,134.24,439.348,133.471,439.26,132.72z"/>
	<path fill="#FFFFFF" d="M446.111,142.889c-2.814,0-2.273,4.332,0.5,4.332C449.424,147.221,448.885,142.889,446.111,142.889z"/>
	<path fill="#FFFFFF" d="M516.078,130.609c-3.176,0-2.566,4.891,0.564,4.891C519.818,135.5,519.211,130.609,516.078,130.609z"/>
	<path fill="#FFFFFF" d="M321.794,160.753c-1.579-1.58-4.826-1.2-5.602,1.041c-0.572,1.655,0.301,3.323,2.057,3.659
		c0.057,0.012,0.114,0.014,0.172,0.022c1.008,0.652,2.354,0.67,3.362-0.1c0.6-0.459,1.003-1.147,1.112-1.895
		C323.063,162.35,322.557,161.516,321.794,160.753z"/>
	<path fill="#FFFFFF" d="M334.53,152.396c-1.378-1.805-4.653-1.141-4.871,1.265c-0.069,0.763-0.104,1.453,0.268,2.113
		c0.102,0.354,0.235,0.673,0.485,1.008c0.454,0.608,1.42,0.617,1.884,0.016c0.125-0.008,0.249-0.018,0.379-0.03
		C334.764,156.579,335.769,154.018,334.53,152.396z"/>
	<path fill="#FFFFFF" d="M329.247,176.886c-0.119-1.027-1.076-1.788-2.104-1.668c-1.027,0.12-1.787,1.077-1.668,2.104
		c0.063,0.549,0.344,0.944,0.726,1.23c0.416,0.952,1.796,1.007,2.27,0.089C329.012,178.252,329.325,177.558,329.247,176.886z"/>
	<path fill="#FFFFFF" d="M307.159,202.308c-2.269,0-1.833,3.493,0.404,3.493C309.832,205.801,309.396,202.308,307.159,202.308z"/>
	<path fill="#FFFFFF" d="M495.135,186.281c-0.242-0.009-0.486-0.013-0.729-0.012c0.822-0.007,0.764-0.014-0.172-0.021
		c-0.783,0.091-1.527,0.524-2.008,1.148c-0.258,0.332-0.357,0.564-0.461,0.913c-0.236,0.838-0.258,0.916-0.068,0.232
		c-0.09,0.303-0.172,0.609-0.256,0.914c-0.197,0.725-0.055,1.812,0.465,2.409c0.365,0.42,0.771,0.74,1.344,0.818
		c0.525,0.072,0.955-0.069,1.451-0.198c0.547-0.143,0.885-0.563,1.326-0.871c0.143-0.1,0.275-0.213,0.404-0.333
		c0.014-0.013,0.025-0.027,0.039-0.04c0.496-0.476,0.863-1.092,0.953-1.768c0.006-0.033,0.016-0.063,0.021-0.096
		C497.643,188.033,496.621,186.332,495.135,186.281z"/>
	<path fill="#FFFFFF" d="M500.078,201.609c-3.176,0-2.566,4.891,0.564,4.891C503.818,206.5,503.211,201.609,500.078,201.609z"/>
	<path fill="#FFFFFF" d="M513.105,197.485c-0.314-0.444-0.895-0.439-1.314-0.175c-0.256,0.162-0.436,0.298-0.6,0.46
		c-0.395,0.185-0.689,0.535-0.701,1.058l-0.002,0.133c-0.035,1.621,2.18,2.518,2.891,0.81
		C513.773,198.826,513.697,198.317,513.105,197.485z"/>
	<path fill="#FFFFFF" d="M529.064,244.493c-3.326,0-2.688,5.123,0.592,5.123C532.984,249.616,532.346,244.493,529.064,244.493z"/>
	<path fill="#FFFFFF" d="M519.094,258.737c-3.01,0-2.434,4.635,0.535,4.635C522.639,263.372,522.061,258.737,519.094,258.737z"/>
	<path fill="#FFFFFF" d="M539.16,267.308c-2.27,0-1.834,3.493,0.402,3.493C541.832,270.801,541.396,267.308,539.16,267.308z"/>
	<path fill="#FFFFFF" d="M588.047,299.342c-3.523,0-2.848,5.426,0.627,5.426C592.197,304.768,591.521,299.342,588.047,299.342z"/>
	<path fill="#FFFFFF" d="M617.16,357.064c0-0.022-0.004-0.045-0.004-0.067c-0.006-0.241-0.049-0.487-0.148-0.734
		c-0.184-0.455-0.551-0.83-0.99-1.068c-0.047-0.028-0.092-0.062-0.143-0.086c-0.135-0.065-0.26-0.101-0.381-0.126
		c-0.025-0.006-0.051-0.009-0.078-0.015c-0.059-0.009-0.119-0.019-0.18-0.023c-0.098-0.011-0.193-0.015-0.291-0.011
		c-0.074-0.001-0.146-0.001-0.229-0.002c-0.35-0.004-0.662,0.121-0.934,0.314c-0.352,0.079-0.689,0.184-1.027,0.31
		c-1.295,0.482-1.348,2.496-0.027,2.987c0.375,0.141,0.748,0.271,1.143,0.35c0.035,0.007,0.07,0.014,0.105,0.021
		c0.156,0.077,0.326,0.133,0.5,0.176c0.209,0.064,0.422,0.094,0.637,0.083c0.031,0.001,0.063,0.006,0.094,0.006
		c0.219-0.003,0.436-0.068,0.633-0.163c0.039-0.019,0.072-0.044,0.111-0.064c0.455-0.226,0.844-0.599,1.043-1.069
		c0.088-0.209,0.129-0.419,0.148-0.628C617.148,357.19,617.16,357.129,617.16,357.064z"/>
	<path fill="#FFFFFF" d="M590.205,376.704c-1.754,0-1.418,2.701,0.313,2.701C592.271,379.405,591.936,376.704,590.205,376.704z"/>
	<path fill="#FFFFFF" d="M553.248,392.076c-1.27,0-1.027,1.957,0.227,1.957C554.744,394.033,554.5,392.076,553.248,392.076z"/>
	<path fill="#FFFFFF" d="M567.037,394.248c-3.645,0-2.945,5.613,0.648,5.613C571.33,399.861,570.631,394.248,567.037,394.248z"/>
	<path fill="#FFFFFF" d="M563.115,365.924c-2.768,0-2.236,4.262,0.492,4.262C566.375,370.186,565.844,365.924,563.115,365.924z"/>
	<path fill="#FFFFFF" d="M628.086,349.68c-3.084,0-2.492,4.75,0.549,4.75C631.721,354.43,631.129,349.68,628.086,349.68z"/>
	<path fill="#FFFFFF" d="M280.138,258.188c0.011-0.008,0.021-0.016,0.032-0.024c-0.092-0.095-0.183-0.189-0.273-0.284
		c-0.729-0.76-1.802-1.056-2.711-0.361c-0.398,0.304-0.666,0.761-0.739,1.257c-0.108,0.74,0.218,1.316,0.731,1.81
		c0.095,0.091,0.189,0.182,0.284,0.273c0.758,0.728,2.113,0.417,2.702-0.346C280.745,259.759,280.634,258.882,280.138,258.188z"/>
	<path fill="#FFFFFF" d="M270.924,271.728c-0.374-0.207-0.699-0.435-1.044-0.688c-0.454-0.997-1.469-1.665-2.628-1.531
		c-1.308,0.152-2.539,1.478-2.265,2.856c0.04-0.641,0.047-0.572,0.022,0.206c-0.001,0.066,0.008,0.132,0.026,0.196
		c0.102,0.507,0.264,0.914,0.584,1.319c0.698,0.885,2.185,1.223,3.088,0.411c0.154-0.139,0.292-0.288,0.426-0.438
		c0,0,0.001-0.001,0.002-0.001c0.22,0.109,0.438,0.22,0.661,0.323c0.713,0.331,1.591-0.058,1.891-0.764
		C272.018,272.839,271.611,272.107,270.924,271.728z"/>
	<path fill="#FFFFFF" d="M120.055,294.412c-3.433,0-2.774,5.287,0.611,5.287C124.099,299.698,123.441,294.412,120.055,294.412z"/>
	<path fill="#FFFFFF" d="M122.065,308.751c-0.564-0.738-1.424-0.94-2.241-0.731c-0.894-0.419-1.915,0.586-1.508,1.482
		c-0.172,0.63-0.096,1.285,0.341,1.856c0.71,0.928,2.079,1.109,3.007,0.4C122.592,311.049,122.774,309.68,122.065,308.751z"/>
	<path fill="#FFFFFF" d="M135.418,210.563c-1.129-0.479-2.238-0.108-3.062,0.703c-0.084,0.073-0.176,0.129-0.271,0.188
		c-0.292,0.181-0.522,0.399-0.754,0.662c-0.428,0.486-0.434,1.384-0.004,1.872c0.23,0.262,0.458,0.48,0.75,0.661
		c0.07,0.043,0.14,0.086,0.208,0.132c0.016,0.01,0.018,0.009,0.027,0.015c0.638,0.652,1.403,1.06,2.357,0.949
		c1.207-0.14,2.192-1.099,2.368-2.299C137.217,212.242,136.538,211.038,135.418,210.563z"/>
	<path fill="#FFFFFF" d="M90.643,170.791c-0.157-1.353-1.295-2.019-2.546-2.019c-1.254,0-2.15,1.41-2.019,2.546
		c0.157,1.353,1.295,2.019,2.546,2.019C89.878,173.337,90.775,171.927,90.643,170.791z"/>
	<path fill="#FFFFFF" d="M82.267,181.24c-1.059,0-0.855,1.63,0.188,1.63C83.513,182.87,83.31,181.24,82.267,181.24z"/>
	<path fill="#FFFFFF" d="M214.327,536.583c-0.561-0.733-1.49-1.128-2.407-1.021c-0.863,0.1-1.865,0.72-2.134,1.597
		c-0.309,1.002-0.586,2.064,0.115,2.982c0.526,0.689,1.275,0.816,2.08,0.819c0.402,0.002,0.841-0.191,1.234-0.312
		C214.886,540.137,215.303,537.861,214.327,536.583z"/>
	<path fill="#FFFFFF" d="M222.203,532.071c-0.804-0.118-1.5,0.249-1.916,0.86c-0.019,0.002-0.036,0.004-0.055,0.005
		c-1.263,0.104-1.312,2.126-0.033,2.231c0.031,0.003,0.063,0.005,0.096,0.008c0.301,0.448,0.744,0.775,1.329,0.862
		c1.081,0.158,2.114-0.615,2.272-1.694C224.055,533.263,223.282,532.23,222.203,532.071z"/>
	<path fill="#FFFFFF" d="M212.13,523.419c-0.87,0.102-1.705,0.99-1.515,1.911c0.141,0.684,0.278,1.167,0.808,1.666
		c0.66,0.623,1.608,0.267,2.149-0.276c0.472-0.472,0.462-1.17,0.469-1.785C214.053,523.993,212.975,523.321,212.13,523.419z"/>
	<path fill="#FFFFFF" d="M460.197,480.487c-0.113-0.133-0.262-0.235-0.445-0.304c-0.281-0.141-0.561-0.282-0.842-0.424
		c-1.621-0.815-2.719,1.785-1.1,2.59c0.164,0.081,0.326,0.162,0.49,0.243c0.195,0.176,0.418,0.267,0.65,0.281
		c0.67,0.183,1.16-0.202,1.396-0.744C460.697,481.635,460.76,480.991,460.197,480.487z"/>
	<path fill="#FFFFFF" d="M475.854,494.208c0.189,0.225,0.381,0.448,0.572,0.673c0.264,0.308,0.59,0.425,0.908,0.415
		c0.336,0.025,0.682-0.085,0.959-0.41c0.189-0.224,0.381-0.447,0.57-0.67C482.008,490.529,472.725,490.541,475.854,494.208z"/>
	<path fill="#FFFFFF" d="M485.676,469.897c-1.021-0.149-1.867,0.418-2.283,1.279c-0.42,0.511-0.406,1.338,0.041,1.813
		c0.32,0.636,0.854,1.11,1.613,1.222c1.176,0.173,2.299-0.669,2.471-1.842C487.691,471.193,486.85,470.07,485.676,469.897z"/>
	<path fill="#FFFFFF" d="M366.687,381.867c-0.106,0.076-0.213,0.153-0.319,0.23c-0.027,0.021-0.036,0.027-0.055,0.042
		c-0.339,0.171-0.669,0.352-0.978,0.574c-0.867,0.627-0.878,2.047-0.007,2.677c0.319,0.23,0.657,0.424,1.009,0.599
		c0.113,0.081,0.227,0.163,0.34,0.245c1.661,1.201,4.102,0.313,4.409-1.781C371.446,382.009,368.624,380.467,366.687,381.867z"/>
	<path fill="#FFFFFF" d="M366.794,396.773c-0.074-1.089-1.032-1.988-2.08-2.143c-1.242-0.183-2.688,0.738-2.777,2.07
		c-0.037,0.546-0.065,1.091-0.045,1.639c0.042,1.103,1.072,2.021,2.109,2.174c1.23,0.181,2.768-0.746,2.818-2.1
		C366.84,397.862,366.832,397.322,366.794,396.773z"/>
	<path fill="#FFFFFF" d="M377.307,408.589c-0.605,0-0.489,0.932,0.107,0.932C378.02,409.521,377.904,408.589,377.307,408.589z"/>
	<path fill="#FFFFFF" d="M601.064,226.481c-3.344,0-2.701,5.146,0.594,5.146C605,231.628,604.359,226.481,601.064,226.481z"/>
	<path fill="#FFFFFF" d="M600.354,241.43c-0.133-0.894-0.793-1.62-1.703-1.754c-1.082-0.159-2.113,0.615-2.273,1.694
		c-0.049,0.333-0.066,0.563-0.066,0.921c0,1.126,1.268,1.931,2.287,1.813c1.215-0.141,1.813-1.163,1.813-2.286
		C600.41,241.692,600.371,241.554,600.354,241.43z"/>
	<path fill="#FFFFFF" d="M664.898,160.576c0.449-0.462,0.691-1.123,0.617-1.77c-0.117-1.01-0.824-1.579-1.717-1.856
		c-0.506-0.272-1.033-0.422-1.643-0.352c-0.799,0.092-1.322,0.496-1.859,1.049c-0.721,0.744-0.949,1.778-0.896,2.78
		c0.066,1.282,1.42,2.532,2.678,2.565c0.994,0.026,2.121-0.496,2.215-1.634C664.549,161.126,664.756,160.868,664.898,160.576z"/>
	<path fill="#FFFFFF" d="M664.252,173.89c0.018-0.036,0.023-0.077,0.045-0.112c0.697-1.115-0.508-2.471-1.654-1.664
		c-0.395,0.277-0.717,0.589-1.016,0.938c-0.035,0.011-0.07,0.023-0.107,0.035c-0.932,0.306-1.578,1.443-1.426,2.399
		c0.094,0.576,0.252,1.038,0.572,1.534c0.736,1.138,2.631,1.078,3.387,0.008c0.139-0.189,0.26-0.39,0.365-0.601
		c0.178-0.63,0.205-0.732,0.084-0.305C664.734,175.32,664.703,174.532,664.252,173.89z"/>
	<path fill="#FFFFFF" d="M676.67,161.944c-1.262-0.186-2.43,0.842-2.43,2.094c-0.105,0.161-0.211,0.319-0.309,0.492
		c-0.398,0.716-0.289,1.799,0.293,2.393c0.527,0.537,1.352,0.812,2.006,0.267c0.279-0.233,0.582-0.448,0.881-0.658
		c0.762-0.534,1.16-1.284,1.359-2.17C678.729,163.227,677.752,162.103,676.67,161.944z"/>
	<path fill="#FFFFFF" d="M652.168,135.378c-2.178,0-1.762,3.354,0.387,3.354C654.732,138.731,654.314,135.378,652.168,135.378z"/>
	<path fill="#FFFFFF" d="M730.119,191.167c-0.371-0.915-1.119-1.37-2.033-1.598c-1.176-0.292-2.656,0.632-3.027,1.789
		c-0.313,0.979-0.184,1.641,0.096,2.587c0.568,1.913,3.818,1.983,4.396,0.039c0.006-0.019,0.014-0.038,0.02-0.057
		c0.064-0.068,0.139-0.123,0.195-0.199C730.32,192.998,730.463,192.022,730.119,191.167z"/>
	<path fill="#FFFFFF" d="M740.102,201.723c-0.463-0.607-1.232-0.934-1.992-0.846c-0.824,0.096-1.398,0.612-1.766,1.321
		c-0.205,0.396-0.393,0.773-0.525,1.202c-0.441,1.435,0.711,2.657,2.17,2.208c0.426-0.13,0.801-0.318,1.193-0.522
		c0.537-0.278,0.953-0.602,1.197-1.175C740.684,203.191,740.576,202.345,740.102,201.723z"/>
</g>
</svg>
